<svg width="72" height="72" viewBox="0 0 72 72" fill="none" xmlns="http://www.w3.org/2000/svg">
<g id="Group 3">
<path id="Ellipse 4" d="M67.2787 36C67.2787 53.2747 53.2747 67.2787 36 67.2787C18.7253 67.2787 4.72131 53.2747 4.72131 36C4.72131 18.7253 18.7253 4.72131 36 4.72131C53.2747 4.72131 67.2787 18.7253 67.2787 36ZM17.5236 36C17.5236 46.2042 25.7958 54.4764 36 54.4764C46.2042 54.4764 54.4764 46.2042 54.4764 36C54.4764 25.7958 46.2042 17.5236 36 17.5236C25.7958 17.5236 17.5236 25.7958 17.5236 36Z" fill="black"/>
<path id="Rectangle 33" d="M28.3279 2C28.3279 0.89543 29.2233 0 30.3279 0H41.6721C42.7767 0 43.6721 0.895431 43.6721 2V7.08197H28.3279V2Z" fill="black"/>
<path id="Rectangle 36" d="M43.6721 70C43.6721 71.1046 42.7767 72 41.6721 72H30.3279C29.2233 72 28.3279 71.1046 28.3279 70V64.918H43.6721V70Z" fill="black"/>
<path id="Rectangle 37" d="M16.9856 66.378C16.2045 67.1591 14.9382 67.1591 14.1571 66.378L6.13553 58.3564C5.35448 57.5754 5.35448 56.309 6.13553 55.528L9.72903 51.9345L20.5791 62.7845L16.9856 66.378Z" fill="black"/>
<path id="Rectangle 38" d="M66.378 55.5279C67.159 56.309 67.159 57.5753 66.378 58.3564L58.3564 66.378C57.5753 67.159 56.309 67.159 55.5279 66.378L51.9344 62.7845L62.7845 51.9344L66.378 55.5279Z" fill="black"/>
<path id="Rectangle 39" d="M70 28.3279C71.1046 28.3279 72 29.2233 72 30.3279V41.6721C72 42.7767 71.1046 43.6721 70 43.6721H64.918V28.3279H70Z" fill="black"/>
<path id="Rectangle 40" d="M2 43.6721C0.89543 43.6721 0 42.7767 0 41.6721L0 30.3279C0 29.2233 0.895431 28.3279 2 28.3279H7.08197L7.08197 43.6721H2Z" fill="black"/>
<path id="Rectangle 34" d="M55.5279 6.13553C56.309 5.35448 57.5753 5.35448 58.3564 6.13553L66.378 14.1571C67.159 14.9382 67.159 16.2045 66.378 16.9856L62.7845 20.5791L51.9344 9.72902L55.5279 6.13553Z" fill="black"/>
<path id="Rectangle 35" d="M6.13553 16.9856C5.35448 16.2046 5.35448 14.9382 6.13553 14.1572L14.1571 6.13559C14.9382 5.35454 16.2045 5.35455 16.9856 6.13559L20.5791 9.72909L9.72902 20.5791L6.13553 16.9856Z" fill="black"/>
<path id="API" d="M21.1165 43L24.202 30.641H28.418L31.5035 43H28.6645L27.755 39.005L29.2595 40.127H23.76L23.845 37.985H28.6815L27.7465 38.971L26.9475 34.9505L26.395 32.426H26.225L25.6725 34.9505L23.9555 43H21.1165ZM35.7723 38.8945C35.5853 38.8945 35.4267 38.8265 35.2963 38.6905C35.1717 38.5545 35.1093 38.3788 35.1093 38.1635L34.5228 37.1775L35.1093 36.693H36.5713C37.0303 36.693 37.4043 36.625 37.6933 36.489C37.9823 36.353 38.1948 36.1405 38.3308 35.8515C38.4668 35.5568 38.5348 35.1743 38.5348 34.704C38.5348 34.279 38.4612 33.9305 38.3138 33.6585C38.1665 33.3865 37.9455 33.1882 37.6508 33.0635C37.3562 32.9332 36.9878 32.868 36.5458 32.868H35.0668L34.3358 30.641C34.5002 30.641 34.6928 30.641 34.9138 30.641C35.1405 30.641 35.3757 30.641 35.6193 30.641C35.863 30.641 36.0925 30.641 36.3078 30.641C36.5232 30.641 36.7045 30.641 36.8518 30.641C38.2912 30.641 39.3933 30.9555 40.1583 31.5845C40.9233 32.2135 41.3058 33.208 41.3058 34.568C41.3058 35.1403 41.2265 35.6872 41.0678 36.2085C40.9092 36.7242 40.6542 37.186 40.3028 37.594C39.9572 37.9963 39.501 38.3137 38.9343 38.546C38.3677 38.7783 37.6792 38.8945 36.8688 38.8945H35.7723ZM32.4233 43V30.641H35.1093V43H32.4233ZM42.7442 43V40.7135H45.3622V33.956C45.3622 33.616 45.4245 33.3695 45.5492 33.2165C45.6738 33.0635 45.8637 32.9672 46.1187 32.9275H42.7442V30.641H50.6492V32.9275H48.0227V39.685C48.0227 40.025 47.9603 40.2715 47.8357 40.4245C47.711 40.5718 47.5212 40.6682 47.2662 40.7135H50.6492V43H42.7442Z" fill="black"/>
</g>
</svg>
