<svg width="100" height="100" viewBox="0 0 100 100" fill="none" xmlns="http://www.w3.org/2000/svg">
<path d="M0 5C0 2.23858 2.23858 0 5 0H95C97.7614 0 100 2.23858 100 5V95C100 97.7614 97.7614 100 95 100H5C2.23858 100 0 97.7614 0 95V5Z" fill="black"/>
<path d="M50.6094 86.6094C45.3906 86.6094 40.6562 85.8125 36.4062 84.2188C32.1562 82.6562 28.5312 80.4062 25.5312 77.4688C22.5312 74.5312 20.2031 70.9688 18.5469 66.7812C16.9219 62.5938 16.1094 57.8906 16.1094 52.6719C16.1094 48.8594 16.5469 45.2812 17.4219 41.9375C18.2969 38.5625 19.5312 35.4844 21.125 32.7031C22.75 29.9219 24.6875 27.4375 26.9375 25.25C29.1875 23.0625 31.6875 21.2188 34.4375 19.7188C37.1875 18.2188 40.1406 17.0781 43.2969 16.2969C46.4531 15.4844 49.7344 15.0781 53.1406 15.0781C57.3906 15.0781 61.4062 15.7344 65.1875 17.0469C68.9688 18.3594 72.2812 20.2969 75.125 22.8594C77.9688 25.3906 80.2188 28.5312 81.875 32.2812C83.5312 36.0312 84.3594 40.3281 84.3594 45.1719C84.3594 48.4844 83.9062 51.5938 83 54.5C82.0938 57.375 80.8438 59.8906 79.25 62.0469C77.6875 64.1719 75.8594 65.8594 73.7656 67.1094C71.6719 68.3281 69.4375 68.9375 67.0625 68.9375C64.6875 68.9375 62.8125 68.2188 61.4375 66.7812C60.0938 65.3125 59.375 63.1406 59.2812 60.2656C58.6562 61.2969 57.9219 62.3281 57.0781 63.3594C56.2344 64.3906 55.3281 65.3281 54.3594 66.1719C53.4219 66.9844 52.2969 67.6562 50.9844 68.1875C49.6719 68.6875 48.2344 68.9375 46.6719 68.9375C44.6406 68.9375 42.7969 68.5781 41.1406 67.8594C39.4844 67.1094 38.0625 66.0469 36.875 64.6719C35.7188 63.2969 34.8281 61.6562 34.2031 59.75C33.5781 57.8125 33.3594 55.6406 33.5469 53.2344C33.5469 50.5156 33.9844 47.875 34.8594 45.3125C35.7344 42.75 36.9375 40.4844 38.4688 38.5156C40 36.5156 41.9062 34.9219 44.1875 33.7344C46.5 32.5156 49.0781 31.9062 51.9219 31.9062C53.5156 31.9062 55.0938 32.2656 56.6562 32.9844C58.25 33.7031 59.7344 34.75 61.1094 36.125C61.1406 35.7812 61.1875 35.4219 61.25 35.0469C61.3125 34.6719 61.375 34.3281 61.4375 34.0156C61.5 33.6719 61.5625 33.3125 61.625 32.9375L68.1406 33.8281L64.6719 52.7188C64.4219 53.9062 64.25 55 64.1562 56C64.0625 56.9688 64.0156 57.8281 64.0156 58.5781C64.0156 60.4531 64.3438 61.7656 65 62.5156C65.6875 63.2656 66.75 63.6406 68.1875 63.6406C69.5625 63.6406 70.875 63.1719 72.125 62.2344C73.375 61.2656 74.4844 59.9531 75.4531 58.2969C76.4219 56.6094 77.1875 54.625 77.75 52.3438C78.3125 50.0625 78.5938 47.5781 78.5938 44.8906C78.5938 40.9219 77.9219 37.4219 76.5781 34.3906C75.2344 31.3594 73.3906 28.8438 71.0469 26.8438C68.7344 24.8125 66.0312 23.2812 62.9375 22.25C59.875 21.2188 56.6094 20.7031 53.1406 20.7031C48.5781 20.7031 44.375 21.4531 40.5312 22.9531C36.7188 24.4531 33.4219 26.5938 30.6406 29.375C27.8906 32.1562 25.7344 35.5156 24.1719 39.4531C22.6406 43.3906 21.875 47.7969 21.875 52.6719C21.875 57.1094 22.5469 61.0938 23.8906 64.625C25.2656 68.125 27.2031 71.0938 29.7031 73.5312C32.2344 75.9688 35.2656 77.8281 38.7969 79.1094C42.3594 80.3906 46.3438 81.0312 50.75 81.0312C52.9062 81.0312 54.9844 80.8594 56.9844 80.5156C59.0156 80.1406 60.9531 79.6562 62.7969 79.0625C64.6719 78.4375 66.4688 77.7344 68.1875 76.9531C69.9375 76.1406 71.6094 75.2969 73.2031 74.4219L74.6562 79.625C71.2188 81.7188 67.5469 83.4062 63.6406 84.6875C59.7656 85.9688 55.4219 86.6094 50.6094 86.6094ZM48.1719 63.1719C49.4844 63.1719 50.625 62.9375 51.5938 62.4688C52.5625 61.9688 53.3438 61.3281 53.9375 60.5469C54.5312 59.7344 55.0781 58.8281 55.5781 57.8281C56.0781 56.7969 56.5 55.75 56.8438 54.6875C57.2188 53.5938 57.5312 52.5312 57.7812 51.5C58.0312 50.4375 58.2656 49.4844 58.4844 48.6406L60.1719 38.9375C59.0469 38.6875 57.9688 38.4688 56.9375 38.2812C56.0625 38.125 55.25 37.9688 54.5 37.8125C53.7812 37.6562 53.2031 37.5781 52.7656 37.5781C50.8281 37.5781 49.0781 38.0938 47.5156 39.125C45.9844 40.125 44.6719 41.4219 43.5781 43.0156C42.5156 44.5781 41.7188 46.3125 41.1875 48.2188C40.6875 50.0938 40.4375 51.9062 40.4375 53.6562C40.5 56.6875 41.1875 59.0312 42.5 60.6875C43.8125 62.3438 45.7031 63.1719 48.1719 63.1719Z" fill="white"/>
</svg>
