<svg width="68" height="68" viewBox="0 0 68 68" fill="none" xmlns="http://www.w3.org/2000/svg">
<path d="M33.5 66C51.4493 66 66 51.4493 66 33.5C66 15.5507 51.4493 1 33.5 1C15.5507 1 1 15.5507 1 33.5C1 51.4493 15.5507 66 33.5 66Z" fill="black"/>
<path d="M33.6394 50.1363H35.0436C36.0432 50.1363 36.9845 49.6698 37.589 48.8737L46.4962 37.1558L55.4033 48.8737C56.0079 49.6686 56.9492 50.1363 57.9488 50.1363H59.353L47.9896 35.1899L58.8436 20.9099H57.4394C56.4398 20.9099 55.4985 21.3764 54.894 22.1725L46.495 33.2228L38.0948 22.1713C37.4903 21.3764 36.549 20.9099 35.5494 20.9099H34.1452L44.9992 35.1899L33.6394 50.1363Z" fill="white"/>
<path d="M34 36.38V32.81C34 24.8667 26.9255 18.5764 18.7335 19.8961C12.3563 20.923 7.82001 26.6898 7.82001 33.1479V34V36.38V36.5489C7.82001 44.347 13.5046 50.5743 20.7529 50.66C26.8124 50.7314 31.9258 46.6806 33.4943 41.1411H32.2709C31.5331 41.1411 30.8644 41.5636 30.5442 42.2276C28.4748 46.5057 23.6553 49.2034 18.3729 47.9896C13.5034 46.8698 10.2 42.3073 10.2 37.3117V36.38H34ZM10.2 33.6549C10.2 28.0523 13.5368 23.472 18.4396 22.376C25.4296 20.8148 31.62 26.0888 31.62 32.81V34H10.2V33.6549Z" fill="white"/>
</svg>
