<svg width="100" height="100" viewBox="0 0 100 100" fill="none" xmlns="http://www.w3.org/2000/svg">
<g clip-path="url(#clip0_32_10)">
<path d="M79.4521 1.36987H20.548C9.95619 1.36987 1.36987 9.95619 1.36987 20.548V79.4521C1.36987 90.0438 9.95619 98.6301 20.548 98.6301H79.4521C90.0438 98.6301 98.6301 90.0438 98.6301 79.4521V20.548C98.6301 9.95619 90.0438 1.36987 79.4521 1.36987Z" fill="black" stroke="black" stroke-width="21.9178"/>
<path d="M82.612 32.0934C79.3093 26.4345 74.8293 21.9544 69.171 18.652C63.5118 15.3495 57.3337 13.6986 50.6322 13.6986C43.9316 13.6986 37.7514 15.35 32.0934 18.652C26.4346 21.9543 21.9548 26.4345 18.6521 32.0934C15.3499 37.752 13.6987 43.9314 13.6987 50.6311C13.6987 58.6791 16.0467 65.916 20.7439 72.3438C25.4406 78.7721 31.5081 83.2202 38.9458 85.6886C39.8116 85.8493 40.4525 85.7363 40.8692 85.3524C41.2861 84.9681 41.4943 84.4867 41.4943 83.9103C41.4943 83.8141 41.486 82.9488 41.47 81.3135C41.4535 79.6781 41.4458 78.2514 41.4458 77.0341L40.3396 77.2255C39.6344 77.3547 38.7447 77.4094 37.6706 77.3939C36.597 77.3789 35.4824 77.2664 34.3284 77.0572C33.174 76.8499 32.1002 76.369 31.1062 75.6155C30.1128 74.8621 29.4075 73.8759 28.9906 72.6584L28.5098 71.5518C28.1892 70.8151 27.6846 69.9966 26.9952 69.0995C26.3057 68.2016 25.6086 67.5928 24.9033 67.2723L24.5666 67.0313C24.3423 66.8711 24.1341 66.6779 23.9415 66.4537C23.7492 66.2295 23.6052 66.0051 23.509 65.7805C23.4127 65.5556 23.4925 65.3711 23.7494 65.2265C24.0062 65.0818 24.4704 65.0115 25.144 65.0115L26.1055 65.1552C26.7467 65.2837 27.5399 65.6676 28.486 66.3092C29.4316 66.9503 30.209 67.7837 30.8182 68.8091C31.5559 70.124 32.4448 71.1258 33.4873 71.8152C34.5289 72.5047 35.5791 72.8488 36.6369 72.8488C37.6947 72.8488 38.6083 72.7686 39.378 72.6091C40.147 72.4487 40.8684 72.2077 41.542 71.8873C41.8305 69.7384 42.6161 68.0875 43.8981 66.9336C42.0709 66.7416 40.4281 66.4524 38.9689 66.0678C37.5106 65.6828 36.0036 65.0579 34.4489 64.1914C32.8933 63.3261 31.6029 62.2517 30.5773 60.9699C29.5515 59.6874 28.7097 58.0037 28.0529 55.9203C27.3959 53.836 27.0672 51.4317 27.0672 48.7067C27.0672 44.8268 28.3339 41.5251 30.8667 38.7997C29.6802 35.8827 29.7922 32.6127 31.2031 28.9899C32.1328 28.701 33.5117 28.9178 35.3389 29.6389C37.1664 30.3603 38.5045 30.9783 39.3545 31.4907C40.2044 32.0029 40.8854 32.437 41.3984 32.789C44.3806 31.9558 47.4582 31.539 50.6319 31.539C53.8056 31.539 56.8838 31.9558 59.8661 32.789L61.6935 31.6354C62.9432 30.8656 64.4189 30.1602 66.117 29.519C67.8162 28.8781 69.1156 28.7015 70.0137 28.9904C71.4559 32.6133 71.5844 35.8832 70.3976 38.8002C72.9302 41.5256 74.1973 44.8281 74.1973 48.7073C74.1973 51.4322 73.8676 53.8441 73.2115 55.9444C72.5546 58.0449 71.7055 59.727 70.6639 60.994C69.6211 62.2608 68.3224 63.3268 66.7677 64.1919C65.2127 65.0577 63.7052 65.6826 62.2468 66.0676C60.7878 66.4527 59.1451 66.7421 57.3179 66.9344C58.9844 68.3766 59.8178 70.653 59.8178 73.7627V83.9089C59.8178 84.4853 60.0182 84.9665 60.4195 85.3511C60.8202 85.735 61.453 85.848 62.3188 85.6871C69.7575 83.219 75.825 78.7707 80.5215 72.3425C85.2176 65.9147 87.5664 58.6778 87.5664 50.6298C87.5648 43.9309 85.9127 37.752 82.612 32.0934Z" fill="white"/>
</g>
<defs>
<clipPath id="clip0_32_10">
<rect width="100" height="100" rx="5" fill="white"/>
</clipPath>
</defs>
</svg>
