<svg width="65" height="65" viewBox="0 0 65 65" fill="none" xmlns="http://www.w3.org/2000/svg">
<g id="original_svg_image 1" clip-path="url(#clip0_21_53)">
<path id="Vector" d="M32.5 65C50.4493 65 65 50.4493 65 32.5C65 14.5507 50.4493 0 32.5 0C14.5507 0 0 14.5507 0 32.5C0 50.4493 14.5507 65 32.5 65Z" fill="black"/>
<g id="Group">
<path id="Vector_2" d="M44.947 9.00026C44.947 9.00026 41.0362 12.7938 36.8073 14.3237C5.48912 25.6518 18.6972 47.7271 19.1282 47.7995C19.1282 47.7995 20.8844 44.7412 23.2567 42.9968C38.3103 31.9299 41.3703 19.1916 41.3703 19.1916C41.3703 19.1916 37.9922 34.5201 24.5997 44.0579C21.6414 46.1633 19.639 51.3476 18.7908 56.529C18.7908 56.529 20.8876 55.6818 21.7892 55.4523C22.1408 53.1579 22.8759 50.9606 24.1191 48.9983C42.8369 51.2269 48.9673 36.1445 49.7681 30.8847C51.6583 18.4636 44.9472 9 44.9472 9" fill="white"/>
</g>
</g>
<defs>
<clipPath id="clip0_21_53">
<rect width="65" height="65" fill="white"/>
</clipPath>
</defs>
</svg>
