<svg width="65" height="65" viewBox="0 0 65 65" fill="none" xmlns="http://www.w3.org/2000/svg">
<g id="Group 2">
<path id="Vector" d="M32.5 65C50.4493 65 65 50.4493 65 32.5C65 14.5507 50.4493 0 32.5 0C14.5507 0 0 14.5507 0 32.5C0 50.4493 14.5507 65 32.5 65Z" fill="black"/>
<g id="node-js 1" clip-path="url(#clip0_23_69)">
<path id="Vector_2" d="M32.5 58.9035C31.8012 58.9035 31.1491 58.7128 30.5435 58.379L24.3478 54.612C23.4161 54.0875 23.882 53.8967 24.1615 53.8014C25.4193 53.3722 25.6522 53.2769 26.9565 52.5139C27.0963 52.4186 27.2826 52.4662 27.4224 52.5616L32.1739 55.4703C32.3602 55.5657 32.5932 55.5657 32.7329 55.4703L51.3199 44.4554C51.5062 44.36 51.5994 44.1693 51.5994 43.9309V21.9488C51.5994 21.7104 51.5062 21.5196 51.3199 21.4243L32.7329 10.4571C32.5466 10.3617 32.3137 10.3617 32.1739 10.4571L13.587 21.4243C13.4006 21.5196 13.3075 21.7581 13.3075 21.9488V43.9309C13.3075 44.1216 13.4006 44.36 13.587 44.4554L18.6646 47.4595C21.413 48.89 23.1366 47.2211 23.1366 45.5521V23.8561C23.1366 23.57 23.3696 23.2839 23.6957 23.2839H26.0714C26.3509 23.2839 26.6304 23.5223 26.6304 23.8561V45.5521C26.6304 49.3191 24.6273 51.5126 21.1335 51.5126C20.0621 51.5126 19.2236 51.5126 16.8478 50.3205L11.9565 47.4595C10.7453 46.7442 10 45.4091 10 43.9786V21.9965C10 20.566 10.7453 19.2308 11.9565 18.5156L30.5435 7.50068C31.7081 6.83311 33.2919 6.83311 34.4565 7.50068L53.0435 18.5156C54.2547 19.2308 55 20.566 55 21.9965V43.9786C55 45.4091 54.2547 46.7442 53.0435 47.4595L34.4565 58.4744C33.8509 58.7605 33.1522 58.9035 32.5 58.9035ZM38.2298 43.7878C30.0776 43.7878 28.4006 39.9732 28.4006 36.7307C28.4006 36.4446 28.6335 36.1585 28.9596 36.1585H31.382C31.6615 36.1585 31.8944 36.3492 31.8944 36.6353C32.2671 39.1625 33.3385 40.4023 38.2764 40.4023C42.1894 40.4023 43.8665 39.4963 43.8665 37.3506C43.8665 36.1108 43.4006 35.2048 37.2981 34.5849C32.2205 34.0604 29.0528 32.916 29.0528 28.7675C29.0528 24.9052 32.2205 22.6164 37.5311 22.6164C43.4938 22.6164 46.4286 24.7144 46.8012 29.292C46.8012 29.4351 46.7547 29.5782 46.6615 29.7212C46.5683 29.8166 46.4286 29.9119 46.2888 29.9119H43.8665C43.6335 29.9119 43.4006 29.7212 43.354 29.4828C42.795 26.8602 41.3509 26.0019 37.5311 26.0019C33.2453 26.0019 32.7329 27.5278 32.7329 28.6722C32.7329 30.055 33.3385 30.4841 39.1149 31.2471C44.8447 32.01 47.5466 33.1067 47.5466 37.2075C47.5 41.4037 44.146 43.7878 38.2298 43.7878Z" fill="white"/>
</g>
</g>
<defs>
<clipPath id="clip0_23_69">
<rect width="45" height="52" fill="white" transform="translate(10 7)"/>
</clipPath>
</defs>
</svg>
