<svg width="300" height="300" viewBox="0 0 300 300" fill="none" xmlns="http://www.w3.org/2000/svg">
<g id="Frame 3">
<rect width="300" height="300" fill="white"/>
<path id="Union" fill-rule="evenodd" clip-rule="evenodd" d="M193.494 74.7376C181.163 64.2303 165.486 58.4655 149.282 58.48C133.079 58.4946 117.412 64.2875 105.1 74.8168C92.7884 85.3462 84.6394 99.921 82.119 115.92L60.8902 112.578C64.2066 91.5276 74.929 72.3503 91.1287 58.4958C107.329 44.6414 127.943 37.0192 149.263 37C170.583 36.9809 191.211 44.5662 207.436 58.3915C223.66 72.2169 234.417 91.3749 237.771 112.42L216.549 115.799C213.999 99.805 205.824 85.2448 193.494 74.7376ZM82.1192 137.082C84.6401 153.081 92.7895 167.655 105.102 178.184C117.414 188.713 133.08 194.506 149.284 194.52C165.488 194.534 181.164 188.769 193.495 178.261C205.825 167.754 214 153.193 216.549 137.199L237.772 140.578C234.418 161.623 223.662 180.781 207.437 194.607C191.213 208.433 170.586 216.019 149.265 216C127.945 215.981 107.331 208.36 91.1304 194.506C74.9303 180.652 64.2075 161.474 60.8906 140.424L82.1192 137.082ZM172.214 97.6384H208.241V156.155L170.566 174.489H169.578L149.697 164.938L129.926 174.489H129.047L91.1524 156.155V97.6384H127.07V148.03C127.07 148.25 127.253 148.543 127.619 148.909C128.058 149.202 128.644 149.348 129.376 149.348C130.768 149.348 131.537 148.836 131.683 147.811V97.6384H167.71V148.25C168.077 148.982 168.809 149.348 169.907 149.348C170.639 149.348 171.189 149.202 171.555 148.909C171.994 148.543 172.214 148.213 172.214 147.921V97.6384ZM54.0696 119.34H89.8868V133.66H54.0696V119.34ZM5 119.34H22.9086V133.66H5V119.34ZM277.091 119.34H295V133.66H277.091V119.34ZM209.934 119.34H245.751V133.66H209.934V119.34ZM25.774 81.1533C25.774 78.5171 27.9121 76.38 30.5496 76.38H46.0704C48.7079 76.38 50.8461 78.5171 50.8461 81.1533V171.847C50.8461 174.483 48.7079 176.62 46.0704 176.62H30.5496C27.9121 176.62 25.774 174.483 25.774 171.847V81.1533ZM249.333 81.1533C249.333 78.5171 251.471 76.38 254.109 76.38H269.63C272.267 76.38 274.405 78.5171 274.405 81.1533V171.847C274.405 174.483 272.267 176.62 269.63 176.62H254.109C251.471 176.62 249.333 174.483 249.333 171.847V81.1533ZM66.608 229.4H50.864V251.192V251.384C50.864 251.512 50.768 251.656 50.576 251.816C50.416 251.944 50.176 252.008 49.856 252.008C49.376 252.008 49.056 251.848 48.896 251.528V229.4H33.152V246.248V251.336C33.088 251.784 32.752 252.008 32.144 252.008C31.824 252.008 31.568 251.944 31.376 251.816C31.216 251.656 31.136 251.528 31.136 251.432V251.192V229.4H15.44V246.248V254.984L32 263H32.192H32.384L41.024 258.824L49.712 263H49.904H50.144L66.608 254.984V229.4ZM97.7098 233.864C94.5098 230.888 90.7178 229.4 86.3337 229.4C83.2938 229.4 80.4778 230.152 77.8857 231.656C75.3258 233.16 73.2937 235.208 71.7897 237.8C70.2858 240.36 69.5338 243.16 69.5338 246.2C69.5338 249.24 70.2858 252.056 71.7897 254.648C73.2937 257.208 75.3258 259.24 77.8857 260.744C80.4778 262.248 83.2938 263 86.3337 263C90.7178 263 94.5098 261.512 97.7098 258.536C100.942 255.56 102.734 251.912 103.086 247.592V244.808C102.734 240.456 100.942 236.808 97.7098 233.864ZM87.2937 241.112V241.208V251.192V251.384C87.2617 251.512 87.1657 251.64 87.0058 251.768C86.8457 251.896 86.6058 251.96 86.2858 251.96C86.0618 251.96 85.8698 251.944 85.7097 251.912C85.5817 251.848 85.4857 251.784 85.4218 251.72C85.3897 251.624 85.3418 251.544 85.2777 251.48C85.2458 251.384 85.2298 251.32 85.2298 251.288L85.2777 251.192V241.208V240.968C85.3098 240.84 85.4058 240.696 85.5658 240.536C85.7258 240.376 85.9658 240.296 86.2858 240.296C86.4778 240.296 86.6377 240.328 86.7658 240.392C86.9258 240.456 87.0378 240.536 87.1018 240.632C87.1657 240.696 87.2138 240.792 87.2458 240.92C87.2777 241.016 87.2937 241.08 87.2937 241.112ZM139.556 229.4H125.108H105.956V263H121.7V257.384L125.54 263H139.556L133.844 254.648H139.556V229.4ZM123.716 238.616V248.6H121.7V238.616H123.716ZM166.04 247.256H165.704V245.24H166.04C168.792 245.24 171.144 244.264 173.096 242.312C175.048 240.36 176.024 238.008 176.024 235.256V229.4H165.848H160.376V239.72H158.312V229.4H152.696H142.424V263H152.696H158.216V252.68H160.232V263H165.848H176.024V257.288C176.024 254.504 175.048 252.136 173.096 250.184C171.144 248.232 168.792 247.256 166.04 247.256ZM207.069 233.864C203.869 230.888 200.077 229.4 195.693 229.4C192.653 229.4 189.837 230.152 187.245 231.656C184.685 233.16 182.653 235.208 181.149 237.8C179.645 240.36 178.893 243.16 178.893 246.2C178.893 249.24 179.645 252.056 181.149 254.648C182.653 257.208 184.685 259.24 187.245 260.744C189.837 262.248 192.653 263 195.693 263C200.077 263 203.869 261.512 207.069 258.536C210.301 255.56 212.093 251.912 212.445 247.592V244.808C212.093 240.456 210.301 236.808 207.069 233.864ZM196.653 241.112V241.208V251.192V251.384C196.621 251.512 196.525 251.64 196.365 251.768C196.205 251.896 195.965 251.96 195.645 251.96C195.421 251.96 195.229 251.944 195.069 251.912C194.941 251.848 194.845 251.784 194.781 251.72C194.749 251.624 194.701 251.544 194.637 251.48C194.605 251.384 194.589 251.32 194.589 251.288L194.637 251.192V241.208V240.968C194.669 240.84 194.765 240.696 194.925 240.536C195.085 240.376 195.325 240.296 195.645 240.296C195.837 240.296 195.997 240.328 196.125 240.392C196.285 240.456 196.397 240.536 196.461 240.632C196.525 240.696 196.573 240.792 196.605 240.92C196.637 241.016 196.653 241.08 196.653 241.112ZM248.915 229.4H233.171V252.152V252.44C233.171 252.632 233.075 252.824 232.883 253.016C232.723 253.208 232.483 253.304 232.163 253.304C231.843 253.304 231.603 253.192 231.443 252.968C231.283 252.744 231.187 252.584 231.155 252.488V252.152V229.4H215.315V246.2C215.315 249.24 216.067 252.056 217.571 254.648C219.075 257.208 221.107 259.24 223.667 260.744C226.259 262.248 229.075 263 232.115 263C235.155 263 237.955 262.248 240.515 260.744C243.107 259.24 245.155 257.208 246.659 254.648C248.163 252.056 248.915 249.24 248.915 246.2V229.4ZM276.456 245.192H285.384V229.4H251.784V245.192H260.712V263H276.456V245.192Z" fill="black"/>
</g>
</svg>
